<?xml version="1.0" encoding="utf-8"?>
<!-- Generator: Adobe Illustrator 23.0.3, SVG Export Plug-In . SVG Version: 6.00 Build 0)  -->
<svg version="1.1" xmlns="http://www.w3.org/2000/svg" xmlns:xlink="http://www.w3.org/1999/xlink" x="0px" y="0px"
	 viewBox="0 0 160.45 66.76" style="enable-background:new 0 0 160.45 66.76;" xml:space="preserve">
<style type="text/css">
	.st0{fill:#0C2330;}
	.st1{fill:#46BCA8;}
	.st2{display:none;}
	.st3{display:inline;}
	.st4{fill:none;stroke:#EB3B7F;stroke-width:0.25;stroke-miterlimit:10;}
	.st5{fill:none;stroke:#EB3B7F;stroke-width:0.25;stroke-miterlimit:10;stroke-dasharray:2.9707,2.9707;}
	.st6{fill:none;stroke:#EB3B7F;stroke-width:0.25;stroke-miterlimit:10;stroke-dasharray:3.0483,3.0483;}
</style>
<g id="Calque_1">
	<g>
		<g>
			<path class="st0" d="M18.55,18.38h16.39v3.62H22.72v9.77h10.41v3.62H22.72v12.72h-4.17V18.38z"/>
			<path class="st0" d="M39.4,18.38h4.09V41.6c0,2.57,1.01,3.03,2.27,3.03c0.38,0,0.72-0.04,0.72-0.04v3.62c0,0-0.63,0.08-1.35,0.08
				c-2.32,0-5.73-0.63-5.73-5.98V18.38z"/>
			<path class="st0" d="M61.94,34.81h0.93v-0.38c0-3.5-1.98-4.68-4.68-4.68c-3.29,0-5.94,2.06-5.94,2.06l-1.69-2.99
				c0,0,3.08-2.53,7.96-2.53c5.39,0,8.43,2.95,8.43,8.34v13.48h-3.79V46.1c0-0.97,0.08-1.68,0.08-1.68h-0.08
				c0,0-1.73,4.21-6.83,4.21c-3.67,0-7.25-2.23-7.25-6.49C49.09,35.11,58.36,34.81,61.94,34.81z M57.22,45.35
				c3.45,0,5.69-3.62,5.69-6.78v-0.67h-1.05c-3.08,0-8.64,0.21-8.64,4.04C53.22,43.66,54.57,45.35,57.22,45.35z"/>
			<path class="st0" d="M71.72,30.39h-2.78V27.1h2.91v-6.15h3.96v6.15h5.14v3.29H75.8v9.48c0,4.25,2.99,4.8,4.55,4.8
				c0.59,0,0.97-0.08,0.97-0.08v3.62c0,0-0.59,0.08-1.43,0.08c-2.74,0-8.17-0.84-8.17-7.96V30.39z"/>
			<path class="st0" d="M92.99,26.3c6.02,0,9.23,4.47,9.23,9.99c0,0.55-0.13,1.77-0.13,1.77H86.55c0.21,4.68,3.54,7.04,7.33,7.04
				c3.67,0,6.32-2.49,6.32-2.49l1.69,2.99c0,0-3.16,3.03-8.26,3.03c-6.7,0-11.29-4.84-11.29-11.16
				C82.33,30.68,86.93,26.3,92.99,26.3z M98.05,34.98c-0.13-3.67-2.4-5.43-5.14-5.43c-3.12,0-5.65,1.94-6.24,5.43H98.05z"/>
			<path class="st0" d="M106.14,26.81h3.96v3.71c0,0.88-0.08,1.6-0.08,1.6h0.08c0.97-3.12,3.45-5.56,6.74-5.56
				c0.55,0,1.05,0.08,1.05,0.08v4.04c0,0-0.55-0.13-1.18-0.13c-2.61,0-5.01,1.85-5.98,5.01c-0.38,1.22-0.51,2.53-0.51,3.83v8.72
				h-4.09V26.81z"/>
		</g>
		<g>
			<path class="st1" d="M117.75,47.51c0-0.54,0.38-0.94,0.9-0.94c0.53,0,0.87,0.39,0.88,0.94c0,0.54-0.36,0.94-0.9,0.94
				C118.11,48.45,117.73,48.05,117.75,47.51z"/>
			<path class="st1" d="M130.41,47.45c0,0-0.97,1.19-2.82,1.19c-2.12,0-3.83-1.52-3.83-3.92c0-2.38,1.71-3.94,3.81-3.94
				c1.74,0,2.67,1.09,2.67,1.09l-0.25,0.32c0,0-0.84-1.01-2.42-1.01c-1.84,0-3.4,1.38-3.4,3.54c0,2.13,1.51,3.51,3.42,3.51
				c1.69,0,2.58-1.11,2.58-1.11L130.41,47.45z"/>
			<path class="st1" d="M134.2,44.66c0-2.19,1.68-3.88,3.84-3.88c2.17,0,3.85,1.69,3.85,3.88c0,2.23-1.68,3.98-3.85,3.98
				C135.88,48.63,134.2,46.89,134.2,44.66z M141.49,44.66c0-2.04-1.54-3.48-3.45-3.48c-1.89,0-3.43,1.44-3.43,3.48
				c0,2.08,1.54,3.57,3.43,3.57C139.95,48.23,141.49,46.74,141.49,44.66z"/>
		</g>
	</g>
</g>
<g id="Calque_2" class="st2">
	<g class="st3">
		<g>
			<polyline class="st4" points="160.45,65.52 160.45,67.02 158.95,67.02 			"/>
			<line class="st5" x1="155.98" y1="67.02" x2="2.99" y2="67.02"/>
			<polyline class="st4" points="1.5,67.02 0,67.02 0,65.52 			"/>
			<line class="st6" x1="0" y1="62.47" x2="0" y2="3.02"/>
			<polyline class="st4" points="0,1.5 0,0 1.5,0 			"/>
			<line class="st5" x1="4.47" y1="0" x2="157.46" y2="0"/>
			<polyline class="st4" points="158.95,0 160.45,0 160.45,1.5 			"/>
			<line class="st6" x1="160.45" y1="4.55" x2="160.45" y2="63.99"/>
		</g>
	</g>
</g>
</svg>
